# xmcd
#
# Track frame offsets:
#   150
#   11175
#   26952
#   39455
#   53327
#   67415
#   80330
#   97890
#   112097
#   133595
#   147462
#   152977
#   164070
#   192172
#
# Disc length: 2772 seconds
#
# Revision: 0
# Processed by: cddbd v1.5.1PL2 Copyright (c) Steve Scherf et al.
# Submitted via: GXTranscoder 2.0.1939
#
DISCID=ca0ad20e
DTITLE=Joan Baez - in concert-part 2
DYEAR=1900
DGENRE=Folk
TTITLE0=Queen of Hearts
TTITLE1=We Shall Overcome
TTITLE2=Portland Town
TTITLE3=Jackaroe
TTITLE4=Don't think Twice
TTITLE5=Three Fishers
TTITLE6=Fennario
TTITLE7=Once I Had A Sweetheart
TTITLE8=Manha de Carnaval - Te Ador
TTITLE9=Long Black Veil
TTITLE10=Hush little Baby
TTITLE11=Nu Bello Cardillo
TTITLE12=With God On Our sSde
TTITLE13=Battle Hymn Of The Republic
EXTD=
EXTT0=
EXTT1=
EXTT2=
EXTT3=
EXTT4=
EXTT5=
EXTT6=
EXTT7=
EXTT8=
EXTT9=
EXTT10=
EXTT11=
EXTT12=
EXTT13=
PLAYORDER=
